<svg width="654" height="462" viewBox="0 0 654 462" fill="none" xmlns="http://www.w3.org/2000/svg">
<g id="Slider">
<g id="top-text">
<path id="Save Your Time" d="M199.725 24.2C198.408 24.2 197.133 24 195.9 23.6C194.683 23.1833 193.725 22.65 193.025 22L193.95 20.05C194.617 20.65 195.467 21.1417 196.5 21.525C197.55 21.8917 198.625 22.075 199.725 22.075C201.175 22.075 202.258 21.8333 202.975 21.35C203.692 20.85 204.05 20.1917 204.05 19.375C204.05 18.775 203.85 18.2917 203.45 17.925C203.067 17.5417 202.583 17.25 202 17.05C201.433 16.85 200.625 16.625 199.575 16.375C198.258 16.0583 197.192 15.7417 196.375 15.425C195.575 15.1083 194.883 14.625 194.3 13.975C193.733 13.3083 193.45 12.4167 193.45 11.3C193.45 10.3667 193.692 9.525 194.175 8.775C194.675 8.025 195.425 7.425 196.425 6.975C197.425 6.525 198.667 6.3 200.15 6.3C201.183 6.3 202.2 6.43333 203.2 6.7C204.2 6.96667 205.058 7.35 205.775 7.85L204.95 9.85C204.217 9.38333 203.433 9.03333 202.6 8.8C201.767 8.55 200.95 8.425 200.15 8.425C198.733 8.425 197.667 8.68333 196.95 9.2C196.25 9.71667 195.9 10.3833 195.9 11.2C195.9 11.8 196.1 12.2917 196.5 12.675C196.9 13.0417 197.392 13.3333 197.975 13.55C198.575 13.75 199.383 13.9667 200.4 14.2C201.717 14.5167 202.775 14.8333 203.575 15.15C204.375 15.4667 205.058 15.95 205.625 16.6C206.208 17.25 206.5 18.125 206.5 19.225C206.5 20.1417 206.25 20.9833 205.75 21.75C205.25 22.5 204.492 23.1 203.475 23.55C202.458 23.9833 201.208 24.2 199.725 24.2ZM214.627 10.625C216.461 10.625 217.861 11.075 218.827 11.975C219.811 12.875 220.302 14.2167 220.302 16V24H218.027V22.25C217.627 22.8667 217.052 23.3417 216.302 23.675C215.569 23.9917 214.694 24.15 213.677 24.15C212.194 24.15 211.002 23.7917 210.102 23.075C209.219 22.3583 208.777 21.4167 208.777 20.25C208.777 19.0833 209.202 18.15 210.052 17.45C210.902 16.7333 212.252 16.375 214.102 16.375H217.902V15.9C217.902 14.8667 217.602 14.075 217.002 13.525C216.402 12.975 215.519 12.7 214.352 12.7C213.569 12.7 212.802 12.8333 212.052 13.1C211.302 13.35 210.669 13.6917 210.152 14.125L209.152 12.325C209.836 11.775 210.652 11.3583 211.602 11.075C212.552 10.775 213.561 10.625 214.627 10.625ZM214.077 22.3C214.994 22.3 215.786 22.1 216.452 21.7C217.119 21.2833 217.602 20.7 217.902 19.95V18.1H214.202C212.169 18.1 211.152 18.7833 211.152 20.15C211.152 20.8167 211.411 21.3417 211.927 21.725C212.444 22.1083 213.161 22.3 214.077 22.3ZM236.225 10.75L230.425 24H227.975L222.175 10.75H224.675L229.225 21.375L233.875 10.75H236.225ZM250.073 17.45C250.073 17.6333 250.057 17.875 250.023 18.175H239.273C239.423 19.3417 239.932 20.2833 240.798 21C241.682 21.7 242.773 22.05 244.073 22.05C245.657 22.05 246.932 21.5167 247.898 20.45L249.223 22C248.623 22.7 247.873 23.2333 246.973 23.6C246.09 23.9667 245.098 24.15 243.998 24.15C242.598 24.15 241.357 23.8667 240.273 23.3C239.19 22.7167 238.348 21.9083 237.748 20.875C237.165 19.8417 236.873 18.675 236.873 17.375C236.873 16.0917 237.157 14.9333 237.723 13.9C238.307 12.8667 239.098 12.0667 240.098 11.5C241.115 10.9167 242.257 10.625 243.523 10.625C244.79 10.625 245.915 10.9167 246.898 11.5C247.898 12.0667 248.673 12.8667 249.223 13.9C249.79 14.9333 250.073 16.1167 250.073 17.45ZM243.523 12.65C242.373 12.65 241.407 13 240.623 13.7C239.857 14.4 239.407 15.3167 239.273 16.45H247.773C247.64 15.3333 247.182 14.425 246.398 13.725C245.632 13.0083 244.673 12.65 243.523 12.65ZM267.17 17.95V24H264.695V17.9L257.745 6.5H260.42L266.02 15.725L271.645 6.5H274.12L267.17 17.95ZM280.492 24.15C279.175 24.15 277.992 23.8583 276.942 23.275C275.892 22.6917 275.067 21.8917 274.467 20.875C273.884 19.8417 273.592 18.675 273.592 17.375C273.592 16.075 273.884 14.9167 274.467 13.9C275.067 12.8667 275.892 12.0667 276.942 11.5C277.992 10.9167 279.175 10.625 280.492 10.625C281.809 10.625 282.984 10.9167 284.017 11.5C285.067 12.0667 285.884 12.8667 286.467 13.9C287.067 14.9167 287.367 16.075 287.367 17.375C287.367 18.675 287.067 19.8417 286.467 20.875C285.884 21.8917 285.067 22.6917 284.017 23.275C282.984 23.8583 281.809 24.15 280.492 24.15ZM280.492 22.05C281.342 22.05 282.1 21.8583 282.767 21.475C283.45 21.075 283.984 20.525 284.367 19.825C284.75 19.1083 284.942 18.2917 284.942 17.375C284.942 16.4583 284.75 15.65 284.367 14.95C283.984 14.2333 283.45 13.6833 282.767 13.3C282.1 12.9167 281.342 12.725 280.492 12.725C279.642 12.725 278.875 12.9167 278.192 13.3C277.525 13.6833 276.992 14.2333 276.592 14.95C276.209 15.65 276.017 16.4583 276.017 17.375C276.017 18.2917 276.209 19.1083 276.592 19.825C276.992 20.525 277.525 21.075 278.192 21.475C278.875 21.8583 279.642 22.05 280.492 22.05ZM303.036 10.75V24H300.761V22C300.278 22.6833 299.636 23.2167 298.836 23.6C298.053 23.9667 297.194 24.15 296.261 24.15C294.494 24.15 293.103 23.6667 292.086 22.7C291.069 21.7167 290.561 20.275 290.561 18.375V10.75H292.961V18.1C292.961 19.3833 293.269 20.3583 293.886 21.025C294.503 21.675 295.386 22 296.536 22C297.803 22 298.803 21.6167 299.536 20.85C300.269 20.0833 300.636 19 300.636 17.6V10.75H303.036ZM309.905 12.975C310.322 12.2083 310.938 11.625 311.755 11.225C312.572 10.825 313.563 10.625 314.73 10.625V12.95C314.597 12.9333 314.413 12.925 314.18 12.925C312.88 12.925 311.855 13.3167 311.105 14.1C310.372 14.8667 310.005 15.9667 310.005 17.4V24H307.605V10.75H309.905V12.975ZM328.398 8.675H322.398V6.5H336.873V8.675H330.873V24H328.398V8.675ZM338.928 10.75H341.328V24H338.928V10.75ZM340.128 8.2C339.662 8.2 339.27 8.05 338.953 7.75C338.653 7.45 338.503 7.08333 338.503 6.65C338.503 6.21667 338.653 5.85 338.953 5.55C339.27 5.23333 339.662 5.075 340.128 5.075C340.595 5.075 340.978 5.225 341.278 5.525C341.595 5.80833 341.753 6.16667 341.753 6.6C341.753 7.05 341.595 7.43333 341.278 7.75C340.978 8.05 340.595 8.2 340.128 8.2ZM362.486 10.625C364.152 10.625 365.469 11.1083 366.436 12.075C367.419 13.0417 367.911 14.475 367.911 16.375V24H365.511V16.65C365.511 15.3667 365.211 14.4 364.611 13.75C364.027 13.1 363.186 12.775 362.086 12.775C360.869 12.775 359.902 13.1583 359.186 13.925C358.469 14.675 358.111 15.7583 358.111 17.175V24H355.711V16.65C355.711 15.3667 355.411 14.4 354.811 13.75C354.227 13.1 353.386 12.775 352.286 12.775C351.069 12.775 350.102 13.1583 349.386 13.925C348.669 14.675 348.311 15.7583 348.311 17.175V24H345.911V10.75H348.211V12.725C348.694 12.0417 349.327 11.525 350.111 11.175C350.894 10.8083 351.786 10.625 352.786 10.625C353.819 10.625 354.736 10.8333 355.536 11.25C356.336 11.6667 356.952 12.275 357.386 13.075C357.886 12.3083 358.577 11.7083 359.461 11.275C360.361 10.8417 361.369 10.625 362.486 10.625ZM384.375 17.45C384.375 17.6333 384.358 17.875 384.325 18.175H373.575C373.725 19.3417 374.233 20.2833 375.1 21C375.983 21.7 377.075 22.05 378.375 22.05C379.958 22.05 381.233 21.5167 382.2 20.45L383.525 22C382.925 22.7 382.175 23.2333 381.275 23.6C380.392 23.9667 379.4 24.15 378.3 24.15C376.9 24.15 375.658 23.8667 374.575 23.3C373.492 22.7167 372.65 21.9083 372.05 20.875C371.467 19.8417 371.175 18.675 371.175 17.375C371.175 16.0917 371.458 14.9333 372.025 13.9C372.608 12.8667 373.4 12.0667 374.4 11.5C375.417 10.9167 376.558 10.625 377.825 10.625C379.092 10.625 380.217 10.9167 381.2 11.5C382.2 12.0667 382.975 12.8667 383.525 13.9C384.092 14.9333 384.375 16.1167 384.375 17.45ZM377.825 12.65C376.675 12.65 375.708 13 374.925 13.7C374.158 14.4 373.708 15.3167 373.575 16.45H382.075C381.942 15.3333 381.483 14.425 380.7 13.725C379.933 13.0083 378.975 12.65 377.825 12.65Z" fill="black"/>
</g>
<g id="bottom-text">
<path id="Easy To Use" d="M326.325 453.825V456H313.625V438.5H325.975V440.675H316.125V446.05H324.9V448.175H316.125V453.825H326.325ZM334.677 442.625C336.51 442.625 337.91 443.075 338.877 443.975C339.86 444.875 340.352 446.217 340.352 448V456H338.077V454.25C337.677 454.867 337.102 455.342 336.352 455.675C335.619 455.992 334.744 456.15 333.727 456.15C332.244 456.15 331.052 455.792 330.152 455.075C329.269 454.358 328.827 453.417 328.827 452.25C328.827 451.083 329.252 450.15 330.102 449.45C330.952 448.733 332.302 448.375 334.152 448.375H337.952V447.9C337.952 446.867 337.652 446.075 337.052 445.525C336.452 444.975 335.569 444.7 334.402 444.7C333.619 444.7 332.852 444.833 332.102 445.1C331.352 445.35 330.719 445.692 330.202 446.125L329.202 444.325C329.885 443.775 330.702 443.358 331.652 443.075C332.602 442.775 333.61 442.625 334.677 442.625ZM334.127 454.3C335.044 454.3 335.835 454.1 336.502 453.7C337.169 453.283 337.652 452.7 337.952 451.95V450.1H334.252C332.219 450.1 331.202 450.783 331.202 452.15C331.202 452.817 331.46 453.342 331.977 453.725C332.494 454.108 333.21 454.3 334.127 454.3ZM348.594 456.15C347.51 456.15 346.469 456.008 345.469 455.725C344.469 455.425 343.685 455.05 343.119 454.6L344.119 452.7C344.702 453.117 345.41 453.45 346.244 453.7C347.077 453.95 347.919 454.075 348.769 454.075C350.869 454.075 351.919 453.475 351.919 452.275C351.919 451.875 351.777 451.558 351.494 451.325C351.21 451.092 350.852 450.925 350.419 450.825C350.002 450.708 349.402 450.583 348.619 450.45C347.552 450.283 346.677 450.092 345.994 449.875C345.327 449.658 344.752 449.292 344.269 448.775C343.785 448.258 343.544 447.533 343.544 446.6C343.544 445.4 344.044 444.442 345.044 443.725C346.044 442.992 347.385 442.625 349.069 442.625C349.952 442.625 350.835 442.733 351.719 442.95C352.602 443.167 353.327 443.458 353.894 443.825L352.869 445.725C351.785 445.025 350.51 444.675 349.044 444.675C348.027 444.675 347.252 444.842 346.719 445.175C346.185 445.508 345.919 445.95 345.919 446.5C345.919 446.933 346.069 447.275 346.369 447.525C346.669 447.775 347.035 447.958 347.469 448.075C347.919 448.192 348.544 448.325 349.344 448.475C350.41 448.658 351.269 448.858 351.919 449.075C352.585 449.275 353.152 449.625 353.619 450.125C354.085 450.625 354.319 451.325 354.319 452.225C354.319 453.425 353.802 454.383 352.769 455.1C351.752 455.8 350.36 456.15 348.594 456.15ZM368.799 442.75L362.374 457.325C361.807 458.675 361.14 459.625 360.374 460.175C359.624 460.725 358.715 461 357.649 461C356.999 461 356.365 460.892 355.749 460.675C355.149 460.475 354.649 460.175 354.249 459.775L355.274 457.975C355.957 458.625 356.749 458.95 357.649 458.95C358.232 458.95 358.715 458.792 359.099 458.475C359.499 458.175 359.857 457.65 360.174 456.9L360.599 455.975L354.749 442.75H357.249L361.874 453.35L366.449 442.75H368.799ZM381.578 440.675H375.578V438.5H390.053V440.675H384.053V456H381.578V440.675ZM396.733 456.15C395.417 456.15 394.233 455.858 393.183 455.275C392.133 454.692 391.308 453.892 390.708 452.875C390.125 451.842 389.833 450.675 389.833 449.375C389.833 448.075 390.125 446.917 390.708 445.9C391.308 444.867 392.133 444.067 393.183 443.5C394.233 442.917 395.417 442.625 396.733 442.625C398.05 442.625 399.225 442.917 400.258 443.5C401.308 444.067 402.125 444.867 402.708 445.9C403.308 446.917 403.608 448.075 403.608 449.375C403.608 450.675 403.308 451.842 402.708 452.875C402.125 453.892 401.308 454.692 400.258 455.275C399.225 455.858 398.05 456.15 396.733 456.15ZM396.733 454.05C397.583 454.05 398.342 453.858 399.008 453.475C399.692 453.075 400.225 452.525 400.608 451.825C400.992 451.108 401.183 450.292 401.183 449.375C401.183 448.458 400.992 447.65 400.608 446.95C400.225 446.233 399.692 445.683 399.008 445.3C398.342 444.917 397.583 444.725 396.733 444.725C395.883 444.725 395.117 444.917 394.433 445.3C393.767 445.683 393.233 446.233 392.833 446.95C392.45 447.65 392.258 448.458 392.258 449.375C392.258 450.292 392.45 451.108 392.833 451.825C393.233 452.525 393.767 453.075 394.433 453.475C395.117 453.858 395.883 454.05 396.733 454.05ZM421.241 456.2C418.908 456.2 417.091 455.533 415.791 454.2C414.491 452.867 413.841 450.95 413.841 448.45V438.5H416.341V448.35C416.341 452.1 417.983 453.975 421.266 453.975C422.866 453.975 424.091 453.517 424.941 452.6C425.791 451.667 426.216 450.25 426.216 448.35V438.5H428.641V448.45C428.641 450.967 427.991 452.892 426.691 454.225C425.391 455.542 423.575 456.2 421.241 456.2ZM437.217 456.15C436.133 456.15 435.092 456.008 434.092 455.725C433.092 455.425 432.308 455.05 431.742 454.6L432.742 452.7C433.325 453.117 434.033 453.45 434.867 453.7C435.7 453.95 436.542 454.075 437.392 454.075C439.492 454.075 440.542 453.475 440.542 452.275C440.542 451.875 440.4 451.558 440.117 451.325C439.833 451.092 439.475 450.925 439.042 450.825C438.625 450.708 438.025 450.583 437.242 450.45C436.175 450.283 435.3 450.092 434.617 449.875C433.95 449.658 433.375 449.292 432.892 448.775C432.408 448.258 432.167 447.533 432.167 446.6C432.167 445.4 432.667 444.442 433.667 443.725C434.667 442.992 436.008 442.625 437.692 442.625C438.575 442.625 439.458 442.733 440.342 442.95C441.225 443.167 441.95 443.458 442.517 443.825L441.492 445.725C440.408 445.025 439.133 444.675 437.667 444.675C436.65 444.675 435.875 444.842 435.342 445.175C434.808 445.508 434.542 445.95 434.542 446.5C434.542 446.933 434.692 447.275 434.992 447.525C435.292 447.775 435.658 447.958 436.092 448.075C436.542 448.192 437.167 448.325 437.967 448.475C439.033 448.658 439.892 448.858 440.542 449.075C441.208 449.275 441.775 449.625 442.242 450.125C442.708 450.625 442.942 451.325 442.942 452.225C442.942 453.425 442.425 454.383 441.392 455.1C440.375 455.8 438.983 456.15 437.217 456.15ZM457.916 449.45C457.916 449.633 457.899 449.875 457.866 450.175H447.116C447.266 451.342 447.774 452.283 448.641 453C449.524 453.7 450.616 454.05 451.916 454.05C453.499 454.05 454.774 453.517 455.741 452.45L457.066 454C456.466 454.7 455.716 455.233 454.816 455.6C453.933 455.967 452.941 456.15 451.841 456.15C450.441 456.15 449.199 455.867 448.116 455.3C447.033 454.717 446.191 453.908 445.591 452.875C445.008 451.842 444.716 450.675 444.716 449.375C444.716 448.092 444.999 446.933 445.566 445.9C446.149 444.867 446.941 444.067 447.941 443.5C448.958 442.917 450.099 442.625 451.366 442.625C452.633 442.625 453.758 442.917 454.741 443.5C455.741 444.067 456.516 444.867 457.066 445.9C457.633 446.933 457.916 448.117 457.916 449.45ZM451.366 444.65C450.216 444.65 449.249 445 448.466 445.7C447.699 446.4 447.249 447.317 447.116 448.45H455.616C455.483 447.333 455.024 446.425 454.241 445.725C453.474 445.008 452.516 444.65 451.366 444.65Z" fill="black"/>
</g>
<g id="bottom-left-Leaf">
<path id="Vector" d="M146.323 386.574C139.058 370.839 164.081 356.739 164.081 356.739C164.081 356.739 197.587 366.892 202.318 363.845C207.05 360.799 175.368 349.582 175.368 349.582C182.98 341.845 212.638 334.341 212.638 334.341C212.638 334.341 233.23 361.645 237.064 357.534C240.898 353.423 217.593 334.285 217.593 334.285C227.632 329.981 242.952 333.078 242.952 333.078C265.069 340.485 254.408 368.476 254.408 368.476C254.408 368.476 261.75 377.782 276.092 383.513C278.485 384.315 280.798 385.338 283 386.569L280.813 388.398C280.14 387.96 279.472 387.563 278.799 387.201H278.768L276.964 386.33C275.205 385.581 273.94 384.995 273.074 384.537C267.639 382.107 260.277 379.173 257.411 379.657C257.35 379.179 257.225 378.711 257.039 378.266C257.161 378.709 257.284 379.173 257.411 379.657C260.379 390.802 242.779 407.791 230.553 414.372C218.327 420.953 220.418 414.214 222.044 404.75C223.67 395.285 236.488 386.702 238.394 381.924C240.301 377.146 233.658 379.524 227.178 385.871C220.698 392.219 223.013 402.075 212.673 412.533C202.334 422.991 176.098 409.034 176.098 409.034C185.871 404.958 196.195 389.055 194.492 385.938C192.79 382.82 172.422 400.297 168.542 402.177C164.662 404.057 153.583 402.304 146.323 386.574Z" fill="#BDC5C0"/>
<path id="Vector_2" opacity="0.5" d="M277.855 325.758C277.855 325.758 201.517 312.938 198.421 295.85C195.326 278.762 277.855 325.758 277.855 325.758Z" fill="#BDC5C0"/>
<path id="Vector_3" opacity="0.5" d="M275.589 326.311C275.589 326.311 183.425 337.829 181.256 318.872C179.086 299.915 275.589 326.311 275.589 326.311Z" fill="#BDC5C0"/>
</g>
<g id="bottom-right-Leaf">
<path id="Vector_4" opacity="0.5" d="M437.994 373.081C437.994 373.081 476.283 430.913 491.238 423.374C506.192 415.836 437.994 373.081 437.994 373.081Z" fill="#BDC5C0"/>
<path id="Vector_5" opacity="0.5" d="M439.867 379.473C439.867 379.473 469.819 444.413 478.375 441.161C486.931 437.909 439.867 379.473 439.867 379.473Z" fill="#BDC5C0"/>
<path id="Vector_6" d="M531.718 382.942C527.631 398.015 502.159 393.303 502.159 393.303C502.159 393.303 484.865 366.929 479.836 366.302C474.808 365.674 490.213 391.735 490.213 391.735C480.465 392.675 455.621 380.744 455.621 380.744C455.621 380.744 457.194 349.977 452.162 350.605C447.131 351.232 452.162 377.918 452.162 377.918C442.731 375.095 433.927 364.103 433.927 364.103C422.919 346.208 446.505 333.021 446.505 333.021C446.505 333.021 446.818 322.349 440.216 310.102C439.026 308.166 438.02 306.123 437.211 304H439.786C439.994 304.687 440.226 305.351 440.482 305.994V306.02C440.657 306.416 440.912 306.984 441.228 307.672C442.011 309.209 442.542 310.357 442.878 311.162C445.231 315.985 448.623 322.265 450.885 323.58C450.65 323.947 450.465 324.343 450.334 324.758C450.512 324.382 450.694 323.99 450.885 323.58C455.288 314.159 477.298 312.592 489.564 315.102C501.829 317.613 496.481 321.066 489.876 326.671C483.271 332.276 469.436 330.799 465.339 332.998C461.241 335.196 467.228 337.394 475.403 336.767C483.577 336.139 487.665 327.974 500.871 326.718C514.078 325.463 524.142 350.266 524.142 350.266C515.023 347.44 498.67 352.464 498.041 355.605C497.413 358.747 521.624 358.431 525.399 359.371C529.174 360.311 535.795 367.872 531.718 382.942Z" fill="#02333A" fill-opacity="0.23"/>
</g>
<g id="top-right-Leaf">
<path id="Vector_7" opacity="0.5" d="M433.052 139.996C433.052 139.996 493.036 105.174 503.089 118.568C513.142 131.962 433.052 139.996 433.052 139.996Z" fill="#BDC5C0"/>
<path id="Vector_8" opacity="0.5" d="M437.568 135.1C437.568 135.1 493.237 90.207 499.46 96.9192C505.683 103.631 437.568 135.1 437.568 135.1Z" fill="#BDC5C0"/>
<path id="Vector_9" opacity="0.5" d="M410.851 135.894C410.851 135.894 482.278 139.431 482.456 148.582C482.634 157.733 410.851 135.894 410.851 135.894Z" fill="#BDC5C0"/>
<path id="Vector_10" d="M506.151 30.1163C500.009 17.2922 478.211 25.7255 478.211 25.7255C478.211 25.7255 467.283 52.2073 462.929 53.6011C458.575 54.9949 467.88 29.1051 467.88 29.1051C459.08 29.8756 439.046 44.671 439.046 44.671C439.046 44.671 445.581 71.9673 441.014 72.2374C436.448 72.5075 436.451 47.7742 436.451 47.7742C428.56 51.8622 422.59 63.163 422.59 63.163C415.819 81.012 438.936 88.9218 438.936 88.9218C438.936 88.9218 440.996 98.4293 437.189 110.49C436.456 112.421 435.906 114.417 435.544 116.452L437.826 116.026C437.896 115.377 437.991 114.743 438.11 114.126L438.106 114.102C438.195 113.718 438.326 113.168 438.492 112.499C438.929 110.993 439.208 109.877 439.372 109.1C440.652 104.391 442.61 98.2059 444.396 96.6534C444.127 96.3639 443.896 96.0397 443.711 95.6894C443.932 95.9967 444.158 96.3183 444.396 96.6534C449.875 104.363 469.652 102.127 480.108 97.8496C490.564 93.5725 485.245 91.3637 478.452 87.436C471.66 83.5083 459.639 87.1192 455.639 85.8279C451.638 84.5366 456.579 81.5776 463.932 80.7877C471.285 79.9978 476.274 86.6355 488.193 85.5755C500.113 84.5155 504.892 60.6363 504.892 60.6363C497.279 64.6756 481.94 62.8802 480.858 60.1705C479.776 57.4608 501.296 53.739 504.486 52.273C507.676 50.807 512.284 42.9392 506.151 30.1163Z" fill="#02333A" fill-opacity="0.23"/>
</g>
<g id="top-left-Leaf">
<path id="Vector_11" opacity="0.5" d="M251.866 144.097C251.866 144.097 193.84 195.331 178.616 186.976C163.391 178.622 251.866 144.097 251.866 144.097Z" fill="#BDC5C0"/>
<path id="Vector_12" opacity="0.5" d="M261.281 136.733C261.281 136.733 173.974 168.426 167.65 150.424C161.326 132.422 261.281 136.733 261.281 136.733Z" fill="#BDC5C0"/>
<path id="Vector_13" d="M129.023 56.755C132.83 39.4952 161.545 43.5713 161.545 43.5713C161.545 43.5713 182.219 72.5701 187.884 73.0341C193.549 73.4981 174.983 44.7589 174.983 44.7589C185.833 43.2124 214.215 55.4914 214.215 55.4914C214.215 55.4914 214.03 90.3967 219.624 89.4359C225.217 88.4751 218.226 58.5161 218.226 58.5161C228.913 61.2479 239.322 73.2522 239.322 73.2522C252.54 92.967 226.849 109.054 226.849 109.054C226.849 109.054 227.042 121.152 235.051 134.685C235.051 134.685 236.838 137.172 238.723 141.446L235.849 141.573C235.58 140.804 235.287 140.055 234.975 139.351C234.975 139.346 234.975 139.342 234.973 139.337C234.972 139.327 234.971 139.317 234.971 139.306C234.754 138.864 234.441 138.234 234.053 137.476C233.096 135.771 232.443 134.518 232.027 133.608C229.149 128.269 225.034 121.325 222.439 119.944C222.682 119.518 222.869 119.06 222.995 118.584L222.4 119.937C217.961 130.816 193.433 133.677 179.594 131.439C165.755 129.201 171.557 125.028 178.651 118.359C185.746 111.69 201.29 112.678 205.748 109.98C210.206 107.281 203.414 105.099 194.297 106.213C185.181 107.328 181.046 116.777 166.353 118.848C151.661 120.919 139.136 93.3426 139.136 93.3426C149.475 96.0914 167.498 89.5988 168.042 86.0137C168.587 82.4287 141.532 83.9787 137.268 83.0982C133.004 82.2176 125.232 74.0155 129.023 56.755Z" fill="#BDC5C0"/>
</g>
<g id="logo-image">
<path id="Rectangle 3" d="M192 37L358.699 37.1478C413.927 37.1968 458.659 82.008 458.61 137.236L458.355 424.631L291.656 424.483C236.428 424.434 191.696 379.623 191.745 324.394L192 37Z" fill="white"/>
<g id="Logo">
<path id="Vector_14" d="M350.332 107.715L350.332 159.929C350.332 161.533 347.943 162.257 346.715 161.03L292.348 106.614C291.927 106.212 291.364 105.991 290.781 106L251.046 106C249.916 106 249 106.765 249 107.715L249 231.934C249.003 234.053 249.464 236.146 250.35 238.071L293.31 332.059C293.492 332.404 293.769 332.69 294.107 332.885C294.445 333.079 294.831 333.175 295.221 333.16L354.779 333.16C355.169 333.175 355.555 333.079 355.893 332.885C356.231 332.69 356.508 332.404 356.69 332.059L399.65 238.071C400.536 236.146 400.997 234.053 401 231.934L401 107.715C401 106.765 400.084 106 398.954 106L352.378 106C351.248 106 350.332 106.765 350.332 107.715ZM302.131 243.079C300.904 243.238 299.783 242.449 299.766 241.41L299.664 235.097L299.664 181.168C299.664 179.568 302.053 178.84 303.281 180.067L356.469 233.321C357.353 234.205 356.964 235.551 355.696 235.997L302.131 243.079Z" fill="#02333A"/>
<path id="Vector_15" d="M305.388 361.292L323.087 404.313C323.255 404.679 323.525 404.988 323.863 405.205C324.202 405.422 324.596 405.538 324.998 405.538C325.4 405.538 325.794 405.422 326.133 405.205C326.471 404.988 326.741 404.679 326.909 404.313L344.608 361.292C345.12 360.044 344.133 358.706 342.697 358.706L307.299 358.706C305.862 358.706 304.876 360.044 305.388 361.292Z" fill="#02333A"/>
</g>
</g>
<g id="person2">
<path id="Vector_16" d="M597.663 169.9C597.663 169.9 620.173 193.293 621.235 202.099C622.297 210.905 610.456 224.646 610.456 224.646L597.663 169.9Z" fill="#20474C"/>
<path id="Vector_17" d="M587.494 412.335C587.494 412.335 586.7 424.743 584.303 424.916C583.985 424.939 572.155 424.916 572.155 424.916L557.054 424.796C557.054 424.796 557.157 421.149 561.575 420.388C565.992 419.627 573.386 416.544 576.074 410.69C578.9 404.54 587.494 412.335 587.494 412.335Z" fill="#012328"/>
<path id="Vector_18" d="M621.128 412.408C621.128 412.408 620.334 424.816 617.941 424.989C617.619 425.012 605.789 424.989 605.789 424.989L590.688 424.869C590.688 424.869 590.795 421.222 595.213 420.461C599.63 419.7 607.024 416.617 609.708 410.763C612.538 404.613 621.128 412.408 621.128 412.408Z" fill="#012328"/>
<path id="Vector_19" d="M571.058 278.926C571.058 278.926 574.95 304.255 589.572 349.234C604.194 394.212 606.176 413.684 606.176 413.684L621.983 413.273C621.983 413.273 622.224 364.151 615.483 341.535C608.742 318.919 614.195 260.049 614.195 260.049L571.058 278.926Z" fill="#0E3237"/>
<path id="Vector_20" d="M563.404 261.322C563.404 261.322 562.76 299.478 569.248 346.34C575.736 393.201 573.466 413.085 573.466 413.085L589.238 413.646C589.238 413.646 598.775 366.799 596.091 343.345C593.407 319.891 609.175 262.909 609.175 262.909L563.404 261.322Z" fill="#2E4A4E"/>
<path id="Vector_21" d="M594.135 172.099L585.737 177.603L573.593 175.297C573.765 174.313 574.574 170.242 575.314 166.553C575.357 166.337 575.403 166.118 575.445 165.907C576.078 162.767 576.622 160.072 576.622 160.072L587.977 155.075L592.214 153.215C592.214 153.28 591.877 156.697 591.831 157.197C590.998 166.072 594.135 172.099 594.135 172.099Z" fill="#FFB27D"/>
<path id="Vector_22" d="M576.699 169.266C576.937 169.166 591.336 164.942 592.897 165.461C594.457 165.98 595.382 169.016 595.382 169.016L571.829 174.301C571.829 174.301 573.689 170.535 576.699 169.266Z" fill="#20474C"/>
<path id="Vector_23" d="M615.241 266.146C612.78 277.292 572.178 278.53 561.736 268.383C560.547 267.23 560.501 261.848 560.969 254.615C561.878 240.474 564.742 219.203 564.876 208.333C564.997 203.126 565.588 197.94 566.64 192.839C567.897 186.538 569.632 180.341 571.833 174.305C571.833 174.305 591.677 167.925 595.385 169.024C613.244 174.328 617.707 254.98 615.241 266.146Z" fill="#1B636D"/>
<path id="Vector_24" d="M560.965 254.615C561.874 240.474 564.738 219.203 564.873 208.333C564.993 203.126 565.584 197.94 566.637 192.839L578.57 190.756C578.57 190.756 590.132 238.529 560.965 254.615Z" fill="#20474D"/>
<path id="Vector_25" d="M567.469 234.916C567.469 234.916 568.274 236.864 566.564 238.167C564.853 239.47 563.741 241.588 564.133 243.137C564.524 244.686 568.259 247.223 569.559 246.819C570.859 246.416 573.505 244.379 573.221 243.564C572.937 242.749 575.015 236.399 571.856 233.955C568.696 231.51 567.469 234.916 567.469 234.916Z" fill="#FFB27D"/>
<path id="Vector_26" d="M580.944 171.465C580.944 171.465 569.305 173.621 560.006 187.293C550.707 200.965 544.587 211.123 546.282 216.07C547.977 221.017 563.496 238.16 566.18 238.164C568.864 238.167 573.198 236.223 573.466 231.822C573.466 231.822 562.541 215.336 564.708 212.876C565.632 211.823 578.961 201.026 580.848 205.923C583.969 214.018 580.944 171.465 580.944 171.465Z" fill="#1B636D"/>
<path id="Vector_27" d="M590.96 157.351C588.46 161.579 579.168 165.215 575.295 166.549C575.337 166.333 575.383 166.114 575.426 165.903C576.058 162.763 576.603 160.068 576.603 160.068L587.957 155.071C590.465 155.064 591.992 155.629 590.96 157.351Z" fill="#FCA56B"/>
<g id="head">
<path id="Vector_28" d="M573.632 162.877C573.632 162.877 592.543 165.913 594.23 154.074C595.917 142.236 599.506 134.669 587.517 132.235C575.529 129.801 572.522 133.979 570.998 137.782C569.474 141.586 568.769 161.784 573.632 162.877Z" fill="#FFB27D"/>
<path id="Vector_29" d="M571.543 136.594C571.543 136.594 574.629 149.621 577.258 148.654C579.887 147.687 582.306 146.902 582.487 150.94C582.669 154.977 579.555 160.118 588.053 159.602C596.551 159.086 605.447 135.638 602.564 131.864C594.193 120.977 559.828 123.533 571.543 136.594Z" fill="#012328"/>
</g>
</g>
<g id="person1">
<g id="Left-Hand-Laptop">
<path id="Vector_30" d="M105.561 265.116C105.561 265.116 111.516 265.798 116.122 265.52C121.887 265.175 128.998 265.032 130.311 266.565C131.624 268.099 131.628 268.095 129.067 269.441C127.074 270.491 119.389 273.873 114.194 272.27C109 270.667 102.371 270.993 102.371 270.993L105.561 265.116Z" fill="#FFB27D"/>
<path id="Vector_31" d="M42.0072 208.563C42.0072 208.563 53.0985 263.348 66.2867 267.534C72.798 269.596 101.275 273.462 109.637 273.521C109.637 273.521 111.575 271.753 110.678 265.065C110.678 265.065 80.5453 256.018 76.0058 250.39C69.248 242.022 77.7458 214.462 69.432 206.732C61.1181 199.002 47.746 196.232 42.0072 208.563Z" fill="#20474C"/>
<path id="Vector_32" d="M130.772 267.367L132.27 267.852L145.007 228.756L143.51 228.271L130.772 267.367Z" fill="#012328"/>
<path id="Vector_33" d="M88.9981 266.951L132.246 267.869L132.301 265.291L89.0531 264.372L88.9981 266.951Z" fill="#012328"/>
</g>
<path id="Vector_34" d="M47.2787 412.73H48.8827C50.4918 412.73 51.7962 411.429 51.7962 409.825L51.7962 321.387C51.7962 319.782 50.4918 318.481 48.8827 318.481H47.2787C45.6696 318.481 44.3652 319.782 44.3652 321.387L44.3652 409.825C44.3652 411.429 45.6696 412.73 47.2787 412.73Z" fill="#012328"/>
<path id="Vector_35" d="M14.7553 418.927C18.2464 411.718 31.8429 406.339 48.077 406.339C64.3112 406.339 77.9114 411.718 81.4025 418.927H14.7553Z" fill="#012328"/>
<path id="Vector_36" d="M106.947 405.745C106.947 405.745 107.757 418.787 110.288 418.974C110.626 419 123.123 419 123.123 419L139.081 418.908C139.081 418.908 138.974 415.075 134.299 414.264C129.623 413.453 121.828 410.184 119.003 404.035C116.03 397.586 106.947 405.745 106.947 405.745Z" fill="#012328"/>
<path id="Vector_37" d="M23.6283 394.475H72.5294C73.0454 394.475 73.4638 394.057 73.4638 393.543V391.609C73.4638 391.095 73.0454 390.677 72.5294 390.677H23.6283C23.1123 390.677 22.6939 391.095 22.6939 391.609V393.543C22.6939 394.057 23.1123 394.475 23.6283 394.475Z" fill="#012328"/>
<path id="Vector_38" d="M43.7509 309.904C46.0425 313.701 48.5917 317.338 51.3805 320.789C59.7716 331.355 68.9095 340.068 70.5098 348.304C70.871 350.095 71.3628 351.857 71.9813 353.576C72.6471 355.462 73.4528 357.447 74.4166 359.497C77.9776 367.202 83.3043 375.856 88.6237 383.711C97.8205 397.285 106.458 408.629 106.458 408.629L122.31 407.954C121.677 406.372 114.761 387.614 105.513 364.692L93.9027 335.952L92.3687 332.147L88.8997 323.551L73.2983 284.876C73.2983 284.876 38.5859 271.749 34.9808 280.261C32.0084 287.264 34.429 294.128 43.7509 309.904Z" fill="#0E3237"/>
<path id="Vector_39" d="M70.2412 368.475C70.2412 368.475 59.2051 375.541 60.283 377.837C60.4264 378.142 66.5184 389.027 66.5184 389.027L74.3798 402.872C74.3798 402.872 77.6906 400.913 76.1198 396.456C74.549 391.998 73.6146 383.615 77.617 378.153C81.8181 372.411 70.2412 368.475 70.2412 368.475Z" fill="#012328"/>
<path id="Vector_40" d="M85.7654 279.039C85.7654 279.039 132.75 312.696 137.878 323.272C141.888 331.549 78.0438 384.012 78.0438 384.012C78.0438 384.012 68.744 374.84 67.5264 370.379C67.5264 370.379 89.5214 338.861 106.947 328.629C112.134 325.584 44.7405 318.144 37.4456 306.826C30.1507 295.508 34.1715 280.521 34.1715 280.521L85.7654 279.039Z" fill="#2E4A4E"/>
<path id="Vector_41" d="M85.5668 328.603L10.098 328.603C7.41986 328.603 4.85139 327.542 2.95765 325.653C1.0639 323.765 -7.62939e-06 321.203 -7.62939e-06 318.532V316.903C-0.000968933 315.58 0.259476 314.27 0.766472 313.047C1.27347 311.824 2.01707 310.713 2.95482 309.776C3.89256 308.84 5.00605 308.097 6.2317 307.59C7.45736 307.084 8.77114 306.822 10.098 306.822H85.5668C88.2459 306.822 90.8153 307.883 92.7098 309.773C94.6042 311.662 95.6685 314.224 95.6685 316.896V318.521C95.6695 319.845 95.4089 321.156 94.9017 322.379C94.3944 323.602 93.6505 324.713 92.7124 325.65C91.7742 326.586 90.6603 327.329 89.4342 327.835C88.2081 328.342 86.894 328.603 85.5668 328.603Z" fill="#BDC5C0"/>
<path id="Vector_42" d="M65.0101 183.799C67.5737 185.375 69.8245 187.409 71.6502 189.797C61.2174 192.505 43.9274 182.845 43.9274 182.845C43.9274 182.845 50.6448 178.344 53.1242 168.449C53.2493 167.95 53.3633 167.44 53.4663 166.916C53.8102 165.129 53.9986 163.316 54.0292 161.497L58.8115 165.782L66.7833 172.907C66.5512 175.607 66.1581 178.291 65.6061 180.945C65.4368 181.833 65.2382 182.787 65.0101 183.799Z" fill="#FFB27D"/>
<path id="Vector_43" d="M86.4754 277.204C86.4511 277.314 86.4204 277.421 86.3834 277.527C85.3791 280.341 70.1971 289.894 59.9262 293.669C53.5215 296.036 31.2985 301.33 29.838 296.773C28.1421 291.49 34.3518 252.98 32.8545 232.938C31.0924 208.423 37.898 186.11 47.3597 178.828C48.0734 178.303 49.4897 179.697 53.5877 181.634C57.3731 183.425 61.5558 183.935 65.0984 183.164L68.2695 185.879C72.6618 189.812 77.4662 195.183 79.6735 203.416C81.0088 208.464 82.0205 216.458 82.771 225.428C83.0579 228.906 83.3117 232.541 83.5288 236.207C83.8635 242.043 84.1578 247.946 84.3013 253.537C84.3013 253.644 84.3013 253.75 84.3013 253.86V254.062C84.3601 254.627 84.3712 255.243 84.3749 255.808C84.3785 256.373 84.408 256.938 84.419 257.496C84.522 261.88 84.5183 265.934 84.6692 269.467C84.7164 270.848 84.9911 272.211 85.4822 273.503C85.85 274.53 86.2804 275.282 86.4497 276.005C86.5512 276.397 86.56 276.808 86.4754 277.204Z" fill="#1B636D"/>
<path id="Vector_44" d="M66.7907 172.907C66.5586 175.607 66.1655 178.291 65.6135 180.945C57.8256 178.436 54.2941 171.406 53.1058 168.449C52.9219 168.004 52.7611 167.55 52.6239 167.088L53.448 166.916L58.8078 165.782L66.7907 172.907Z" fill="#ED975D"/>
<path id="Vector_45" d="M69.1671 175.412C69.1671 175.412 51.9581 174.976 52.3885 164.293C52.8189 153.609 50.917 146.36 61.9053 146.188C72.8936 146.015 74.8764 150.175 75.6011 153.778C76.3258 157.381 73.6551 175.262 69.1671 175.412Z" fill="#FFB27D"/>
<path id="Vector_46" d="M50.2548 144.445C50.1481 144.265 49.8575 144.078 49.1512 143.924C49.5896 143.769 50.0593 143.722 50.5197 143.788C50.8361 142.845 51.6564 141.22 53.4001 141.107C53.0999 141.217 52.8285 141.393 52.6062 141.622C52.3838 141.851 52.2164 142.128 52.1163 142.431C54.4007 140.791 58.8005 140.083 70.1051 143.014C85.0076 146.877 78.3087 155.646 76.1493 156.449C73.9899 157.252 69.6232 153.232 65.9261 152.876C62.229 152.52 60.603 157.645 59.2382 158.151C57.8734 158.658 58.5871 157.465 57.031 156.412C55.4749 155.359 54.8238 158.1 55.004 159.982C55.1843 161.864 52.4473 163.83 52.4473 163.83L50.5675 160.925C48.6877 158.019 48.3787 147.064 49.8318 144.999L50.2548 144.445Z" fill="#012328"/>
<path id="Vector_47" d="M85.4968 273.521C81.3178 272.846 70.999 270.788 63.5055 266.11C49.9826 257.672 42.0145 214.822 42.0145 214.822L63.1965 241.875L84.3932 257.36L84.419 257.515C84.522 261.899 84.5183 265.953 84.6691 269.486C84.7211 270.867 85.0007 272.23 85.4968 273.521Z" fill="#16545C"/>
<g id="right-laptop">
<path id="Vector_48" d="M105.166 253.659C106.256 253.958 107.41 253.958 108.501 253.659C110.294 253.16 116.452 251.663 117.477 252.162C118.502 252.661 121.709 255.159 122.477 255.658C123.246 256.157 124.399 258.281 124.399 258.281C123.691 258.784 121.761 257.071 120.816 256.946C119.87 256.821 112.148 259.466 110.038 259.217C108.239 258.937 106.462 258.54 104.717 258.028L105.166 253.659Z" fill="#FFB27D"/>
<path id="Vector_49" d="M117.933 255.974C117.933 256.091 120.039 259.275 122.142 258.707L120.348 256.315L117.933 255.974Z" fill="#FFB27D"/>
<path id="Vector_50" d="M62.0408 193.474C50.6378 183.972 33.5183 194.725 37.622 208.779C42.3814 225.079 51.5648 251.964 61.0234 254.572C67.7574 256.436 97.0373 259.415 105.599 259.22C105.599 259.22 107.185 259.807 106.051 253.152C106.051 253.152 73.9488 243.496 70.4291 237.142C68.545 233.738 71.066 201.189 62.3046 193.694L62.0408 193.474Z" fill="#1B636D"/>
<path id="Vector_51" d="M108.501 253.659C108.501 253.659 111.138 251.949 112.077 251.072C112.077 251.072 112.503 251.347 112.454 251.729C112.382 252.367 111.553 253.424 111.553 253.424L108.501 253.659Z" fill="#FFB27D"/>
</g>
</g>
<g id="left-paper-plane">
<path id="Vector_52" d="M26.9801 64.9478L64 70.2443L39.4316 53.4509L38.1848 58.8367L29.1822 60.4714L26.9801 64.9478Z" fill="#BDC5C0"/>
<path id="Vector_53" d="M64 70.2442L33.1924 54.3169L3 52.7932L64 70.2442Z" fill="#D9DBD4"/>
<path id="Vector_54" d="M39.4316 53.4508L64 70.2442L44.98 44L39.4316 53.4508Z" fill="#D9DBD4"/>
</g>
<g id="right-paper-plane">
<path id="Vector_55" d="M630.806 76.9545L595 81.9999L618.763 66.0027L619.969 71.1331L628.676 72.6903L630.806 76.9545Z" fill="#BDC5C0"/>
<path id="Vector_56" d="M595 81.9999L624.798 66.8277L654 65.3762L595 81.9999Z" fill="#D9DBD4"/>
<path id="Vector_57" d="M618.763 66.0028L595 82L613.396 57L618.763 66.0028Z" fill="#D9DBD4"/>
</g>
</g>
</svg>
